<?xml version="1.0" encoding="utf-8"?>
<!-- Generator: Adobe Illustrator 18.0.0, SVG Export Plug-In . SVG Version: 6.00 Build 0)  -->
<!DOCTYPE svg PUBLIC "-//W3C//DTD SVG 1.1//EN" "http://www.w3.org/Graphics/SVG/1.1/DTD/svg11.dtd">
<svg version="1.1" id="Layer_1" xmlns="http://www.w3.org/2000/svg" xmlns:xlink="http://www.w3.org/1999/xlink" x="0px" y="0px"
	 viewBox="0 0 500 500" enable-background="new 0 0 500 500" xml:space="preserve">
<g>
	<g>
		<path fill="#010101" d="M23.3,428.5c0-119.5,0-238.9,0-358.4c0.3-1,0.6-2,0.9-2.9C28.9,45.4,42,31.6,63.6,25.7
			c1.8-0.5,3.7-0.9,5.5-1.4c119.4,0,238.9,0,358.4,0c0.8,0.3,1.6,0.6,2.5,0.8c22,4.5,35.9,17.8,41.8,39.3c0.5,1.8,0.9,3.7,1.4,5.5
			c0,119.5,0,238.9,0,358.4c-0.3,1-0.7,2-0.9,2.9c-3.8,20.8-19.5,37.2-40.2,41.5c-1.6,0.4-3.1,0.7-4.6,1.1c-119.5,0-238.9,0-358.4,0
			c-0.8-0.3-1.6-0.6-2.5-0.8c-21.1-3.8-37.1-19-42-39.8C24.1,431.8,23.7,430.1,23.3,428.5z M75.3,214.9c-0.1,1.6-0.2,2.6-0.2,3.8
			c0,61.8,0,123.5,0,185.3c0,11.2,7.4,18.3,19,18.3c102.6,0,205.3,0,307.8,0c12.2,0,19.2-7.1,19.2-19.4c0-61.1,0-122,0-183.1
			c0-1.6,0-3.1,0-4.8c-13.2,0-25.9,0-38.9,0c9.7,42.9,2.8,82.2-23.5,117.1c-26.5,35-62.1,53.6-106,55.3c-36.8,1.4-69.5-10-96.6-34.9
			c-40.7-37.2-53.6-83.7-42.3-137.6C101,214.9,88.5,214.9,75.3,214.9z M334.7,249.4c0.2-47.7-38.6-86.6-86.4-86.7
			c-47.7-0.1-86.2,38.2-86.6,86.2c-0.5,47.6,38.2,86.6,86.3,87C295.6,336.1,334.5,297.3,334.7,249.4z M378.3,76.2
			c-8.3,0-16.6-0.1-25,0c-11,0.1-18.3,6.9-18.5,17.9c-0.3,16.9-0.3,34,0,50.9c0.2,10.7,7,17.6,17.8,17.8c16.9,0.3,34,0.3,50.9,0
			c11-0.2,17.9-7.5,17.9-18.4c0-16.4,0-33.1,0-49.7c0-11-7.2-18.3-18.3-18.4C394.7,76.1,386.5,76.2,378.3,76.2z"/>
	</g>
</g>
</svg>
