<?xml version="1.0" encoding="utf-8"?>
<!-- Generator: Adobe Illustrator 18.0.0, SVG Export Plug-In . SVG Version: 6.00 Build 0)  -->
<!DOCTYPE svg PUBLIC "-//W3C//DTD SVG 1.1//EN" "http://www.w3.org/Graphics/SVG/1.1/DTD/svg11.dtd">
<svg version="1.1" id="Layer_1" xmlns="http://www.w3.org/2000/svg" xmlns:xlink="http://www.w3.org/1999/xlink" x="0px" y="0px"
	 viewBox="0 0 500 500" enable-background="new 0 0 500 500" xml:space="preserve">
<g>
	<path fill="#010101" stroke="#FFFFFF" stroke-miterlimit="10" d="M249.9,21C124.5,21,22.8,122.7,22.8,248.1
		c0,96.1,59.9,178.3,144.2,211.5c-2-18-3.8-45.6,0.8-65.1c4.1-17.7,26.5-112.8,26.5-112.8s-6.8-13.5-6.8-33.6
		c0-31.6,18.4-55.2,41.1-55.2c19.3,0,28.7,14.6,28.7,32c0,19.5-12.4,48.7-18.9,75.6c-5.3,22.7,11.2,41,33.6,41
		c40.3,0,71.5-42.6,71.5-104.1c0-54.3-39-92.4-94.9-92.4c-64.4,0-102.4,48.4-102.4,98.6c0,19.5,7.6,40.4,16.9,51.8
		c1.7,2.2,2.1,4.1,1.6,6.5c-1.7,7.2-5.4,22.7-6.3,25.8c-1,4.1-3.2,5-7.6,3c-28.4-13.1-46-54.6-46-87.9c0-71.6,52-137.5,149.9-137.5
		c78.8,0,140.1,56,140.1,131.2c0,78.3-49.4,141.3-117.8,141.3c-23.1,0-44.7-12-52-26c0,0-11.2,43.5-14.2,54.1
		c-5.2,19.7-19,44.5-28.3,59.5c21.3,6.5,43.8,10.2,67.2,10.2c125.5,0,227.1-101.7,227.1-227.1C477,122.9,375.4,21,249.9,21z"/>
</g>
</svg>
