<?xml version="1.0" encoding="utf-8"?>
<!-- Generator: Adobe Illustrator 18.0.0, SVG Export Plug-In . SVG Version: 6.00 Build 0)  -->
<!DOCTYPE svg PUBLIC "-//W3C//DTD SVG 1.1//EN" "http://www.w3.org/Graphics/SVG/1.1/DTD/svg11.dtd">
<svg version="1.1" id="Layer_1" xmlns="http://www.w3.org/2000/svg" xmlns:xlink="http://www.w3.org/1999/xlink" x="0px" y="0px"
	 viewBox="0 0 500 500" enable-background="new 0 0 500 500" xml:space="preserve">
<path fill="#010101" d="M496.3,237.6c-17.4,3-42.5-0.1-55.9-5.6c27.7-2.3,46.5-14.9,53.8-31.9c-9.9,6.1-41.1,12.8-58.1,6.5
	c-1-4.1-1.8-7.9-2.8-11.3c-13.1-48-57.8-86.7-104.6-82c3.7-1.6,7.6-3,11.4-4.2c5.2-1.9,35.5-6.9,30.6-17.5c-4.1-9.3-41.1,7.1-48,9.3
	c9.1-3.4,24.3-9.3,26-20c-14.1,2-27.9,8.5-38.6,18.3c3.9-4.1,6.9-9.1,7.4-14.7c-37.6,24-59.5,72.4-77.3,119.4
	c-13.9-13.5-26.3-24.1-37.4-30c-31.1-16.7-68.3-34.1-126.5-55.7c-1.8,19.4,9.6,45,42.2,62.1c-7.1-1-20.1,1.2-30.3,3.7
	c4.2,22.2,18,40.3,55.3,49.2c-17,1.1-25.8,5.1-33.9,13.3c7.7,15.4,26.8,33.6,60.8,29.8c-37.8,16.4-15.5,46.6,15.4,42.1
	c-52.5,54.4-135.5,50.3-183,5c124.2,169,394.3,99.7,434.6-63.4C467.6,259.9,485.2,249.4,496.3,237.6z"/>
</svg>
